<svg width="57" height="95" viewBox="0 0 57 95" fill="none" xmlns="http://www.w3.org/2000/svg">
<path fill-rule="evenodd" clip-rule="evenodd" d="M27.828 0.292C27.692 0.452 27.397 0.972 27.173 1.447C26.949 1.922 26.706 2.274 26.633 2.229C26.56 2.184 26.491 2.226 26.479 2.323C26.468 2.421 26.439 2.556 26.415 2.625C26.391 2.694 26.317 2.919 26.25 3.125C26.183 3.331 26.062 3.5 25.981 3.5C25.9 3.5 25.842 3.556 25.853 3.625C25.904 3.945 25.819 4.178 25.683 4.094C25.601 4.043 25.4 4.372 25.237 4.825C25.074 5.279 24.893 5.62 24.835 5.584C24.777 5.548 24.51 5.984 24.241 6.551C23.973 7.119 23.607 7.753 23.428 7.961C23.249 8.169 23.085 8.456 23.064 8.6C23.043 8.744 22.919 8.949 22.788 9.056C22.658 9.163 22.452 9.512 22.33 9.833C22.208 10.154 21.972 10.551 21.804 10.715C21.637 10.879 21.5 11.112 21.5 11.234C21.5 11.355 21.279 11.732 21.009 12.072C20.739 12.411 20.436 12.94 20.334 13.247C20.233 13.553 20.042 13.846 19.909 13.897C19.776 13.948 19.667 14.133 19.667 14.308C19.667 14.483 19.555 14.719 19.419 14.832C19.282 14.945 19.208 15.098 19.253 15.172C19.299 15.246 19.221 15.421 19.081 15.562C18.94 15.703 18.64 16.215 18.414 16.7C18.188 17.186 18 17.508 17.996 17.417C17.991 17.325 17.788 17.662 17.545 18.167C17.301 18.671 16.966 19.229 16.801 19.406C16.635 19.584 16.5 19.825 16.5 19.942C16.5 20.058 16.361 20.288 16.191 20.452C16.021 20.616 15.748 21.105 15.586 21.538C15.424 21.972 15.233 22.291 15.163 22.248C15.039 22.171 14.829 22.526 14.738 22.967C14.714 23.086 14.574 23.367 14.427 23.59C14.281 23.814 14.169 24.045 14.178 24.105C14.188 24.164 14.132 24.259 14.056 24.315C13.979 24.371 13.749 24.754 13.544 25.167C13.339 25.579 13.17 25.842 13.167 25.75C13.165 25.658 12.975 25.989 12.744 26.485C12.513 26.981 12.225 27.469 12.104 27.568C11.984 27.668 11.782 28.012 11.657 28.333C11.532 28.654 11.295 29.062 11.131 29.24C10.967 29.417 10.833 29.651 10.833 29.759C10.833 29.867 10.678 30.153 10.488 30.394C10.298 30.636 10.188 30.833 10.244 30.833C10.3 30.833 10.196 30.995 10.012 31.192C9.82896 31.389 9.71096 31.603 9.74996 31.667C9.78896 31.731 9.69296 31.925 9.53596 32.1C9.37896 32.274 9.06997 32.808 8.84897 33.286C8.62897 33.764 8.39497 34.121 8.32897 34.081C8.26297 34.04 8.07497 34.361 7.91097 34.795C7.74697 35.229 7.45597 35.748 7.26497 35.949C7.07297 36.151 6.90896 36.376 6.89996 36.449C6.85496 36.806 6.45097 37.667 6.32897 37.667C6.25297 37.667 6.05797 37.967 5.89697 38.333C5.73497 38.7 5.55596 39 5.49896 39C5.44196 39 5.29297 39.262 5.16697 39.583C5.04097 39.904 4.87697 40.167 4.80197 40.167C4.72797 40.167 4.67597 40.223 4.68597 40.292C4.73697 40.611 4.65297 40.844 4.51697 40.761C4.39497 40.685 4.11897 41.075 4.19897 41.21C4.21197 41.232 4.11896 41.438 3.99196 41.667C3.86596 41.896 3.75896 42.123 3.75596 42.171C3.75296 42.219 3.58396 42.436 3.38096 42.654C3.17796 42.872 3.04496 43.104 3.08496 43.17C3.12596 43.235 3.01596 43.418 2.84096 43.577C2.66596 43.735 2.56297 43.97 2.61197 44.099C2.66197 44.228 2.62797 44.333 2.53597 44.333C2.44497 44.333 2.21096 44.671 2.01796 45.083C1.82396 45.496 1.58996 45.833 1.49896 45.833C1.40796 45.833 1.34396 45.89 1.35596 45.958C1.39996 46.2 0.784965 47.49 0.661965 47.414C0.538965 47.338 0.292965 48.016 0.403965 48.126C0.435965 48.158 4.87697 45.681 10.273 42.621C15.668 39.562 21.846 36.062 24 34.843C26.154 33.624 27.971 32.578 28.038 32.517C28.174 32.394 28.298 0 28.162 0C28.114 0 27.963 0.131 27.828 0.292Z" fill="#F9ED66"/>
<path fill-rule="evenodd" clip-rule="evenodd" d="M28.269 0.55278C28.215 0.75278 28.171 8.00378 28.17 16.6668L28.169 32.4168L28.793 32.7608C29.136 32.9498 30.654 33.8068 32.167 34.6648C33.679 35.5228 35.929 36.7978 37.167 37.4988C38.404 38.1988 43.141 40.8858 47.692 43.4688C52.243 46.0528 56.012 48.1668 56.067 48.1668C56.267 48.1668 56.159 47.8258 55.866 47.5328C55.701 47.3668 55.391 46.8018 55.177 46.2768C54.964 45.7508 54.753 45.3578 54.707 45.4038C54.662 45.4488 54.428 45.0958 54.187 44.6178C53.947 44.1408 53.689 43.7048 53.614 43.6498C53.539 43.5948 53.291 43.1818 53.063 42.7328C52.394 41.4148 52.026 40.7858 51.862 40.6808C51.778 40.6268 51.54 40.1898 51.334 39.7078C51.128 39.2268 50.905 38.8328 50.838 38.8328C50.719 38.8328 50.083 37.5448 50.083 37.3038C50.083 37.2358 49.948 37.0818 49.782 36.9608C49.527 36.7738 49.421 36.5368 49.346 35.9898C49.339 35.9378 49.187 35.7388 49.008 35.5468C48.83 35.3548 48.521 34.8538 48.323 34.4328C48.125 34.0108 47.884 33.6668 47.787 33.6668C47.69 33.6668 47.659 33.6188 47.717 33.5608C47.775 33.5028 47.675 33.2678 47.495 33.0388C47.314 32.8088 47.167 32.4768 47.167 32.3008C47.167 32.1248 47.103 32.0198 47.025 32.0678C46.947 32.1158 46.71 31.7458 46.498 31.2448C46.286 30.7428 46.047 30.3328 45.967 30.3328C45.887 30.3328 45.677 29.9958 45.5 29.5828C45.323 29.1708 45.101 28.8328 45.006 28.8328C44.911 28.8328 44.848 28.7768 44.865 28.7078C44.915 28.5118 44.145 26.9728 43.699 26.3748C43.476 26.0768 43.35 25.8328 43.42 25.8328C43.489 25.8328 43.36 25.6478 43.134 25.4218C42.908 25.1958 42.632 24.7078 42.521 24.3388C42.411 23.9688 42.244 23.6668 42.151 23.6668C42.058 23.6668 41.825 23.2898 41.634 22.8288C41.442 22.3688 41.248 22.0298 41.202 22.0758C41.156 22.1218 40.937 21.7688 40.716 21.2918C40.494 20.8148 40.257 20.3848 40.187 20.3368C40.117 20.2888 39.883 19.8748 39.667 19.4168C39.45 18.9578 39.193 18.5298 39.095 18.4638C38.997 18.3988 38.917 18.2768 38.917 18.1938C38.917 18.1098 38.673 17.6658 38.375 17.2058C38.077 16.7458 37.833 16.2868 37.833 16.1848C37.833 16.0828 37.702 15.8648 37.542 15.6998C37.277 15.4278 36.686 14.3868 35.771 12.5828C35.585 12.2168 35.373 11.8918 35.301 11.8618C35.229 11.8318 35.023 11.4728 34.843 11.0658C34.662 10.6578 34.399 10.2078 34.257 10.0668C34.116 9.92478 34 9.71678 34 9.60278C34 9.48878 33.869 9.24778 33.708 9.06778C33.435 8.75978 33.043 8.06978 32.015 6.08278C31.777 5.62478 31.522 5.20478 31.447 5.14978C31.372 5.09378 31.13 4.68178 30.91 4.23278C30.69 3.78378 30.505 3.49178 30.499 3.58278C30.492 3.67478 30.316 3.35478 30.108 2.87178C29.899 2.38878 29.689 2.03278 29.642 2.08078C29.594 2.12878 29.382 1.75878 29.171 1.25878C28.746 0.25478 28.418 -0.00222 28.269 0.55278Z" fill="#F48A76"/>
<path fill-rule="evenodd" clip-rule="evenodd" d="M24 34.8309C21.754 36.1089 15.511 39.6499 10.126 42.7019C4.74098 45.7529 0.333984 48.2939 0.333984 48.3479C0.333984 48.4019 0.524985 48.5339 0.758985 48.6409C0.993985 48.7469 1.13898 48.9089 1.08298 49.0009C0.995985 49.1409 1.24998 49.2489 1.37498 49.1259C1.39798 49.1029 1.65299 49.2529 1.94199 49.4589C2.23199 49.6649 2.55498 49.8329 2.66098 49.8329C2.76598 49.8329 2.81398 49.8969 2.76598 49.9749C2.67798 50.1169 2.95198 50.2819 3.95798 50.6929C4.25598 50.8149 4.49998 50.9719 4.49998 51.0429C4.49998 51.1129 4.83398 51.3329 5.24198 51.5309C5.64998 51.7299 5.95198 51.9429 5.91298 52.0059C5.87398 52.0689 6.17799 52.2589 6.58799 52.4279C6.99799 52.5969 7.33298 52.7809 7.33298 52.8369C7.33298 52.8929 7.65198 53.1149 8.04198 53.3309C8.43098 53.5469 8.80998 53.8239 8.88298 53.9449C8.95698 54.0669 9.11499 54.1669 9.23499 54.1669C9.35599 54.1669 9.71799 54.3759 10.04 54.6319C10.362 54.8879 10.935 55.2369 11.314 55.4079C11.693 55.5789 11.967 55.7549 11.923 55.7989C11.879 55.8439 12.15 56.0319 12.526 56.2179C12.903 56.4039 13.398 56.7299 13.626 56.9419C13.855 57.1539 14.096 57.2939 14.162 57.2529C14.229 57.2119 14.44 57.3249 14.632 57.5039C14.824 57.6829 15.304 57.9949 15.699 58.1969C16.094 58.3989 16.477 58.6629 16.55 58.7819C16.623 58.9019 16.766 58.9999 16.868 58.9999C16.969 58.9999 17.284 59.1769 17.568 59.3929C17.851 59.6089 18.405 59.9489 18.798 60.1489C19.19 60.3489 19.467 60.5849 19.413 60.6729C19.358 60.7609 19.415 60.8329 19.538 60.8329C19.868 60.8329 20.886 61.3809 21.338 61.8009C21.553 62.0019 21.824 62.1669 21.94 62.1669C22.055 62.1669 22.21 62.2599 22.283 62.3749C22.357 62.4899 22.773 62.7579 23.208 62.9699C23.644 63.1829 24 63.4309 24 63.5209C24 63.6109 24.377 63.8419 24.837 64.0329C25.298 64.2239 25.634 64.4219 25.584 64.4719C25.534 64.5209 25.814 64.7059 26.205 64.8809C26.596 65.0569 27.029 65.3349 27.167 65.4989C27.304 65.6629 27.585 65.8479 27.792 65.9099L28.167 66.0219V49.2609C28.167 40.0429 28.148 32.5019 28.125 32.5039C28.102 32.5069 26.246 33.5539 24 34.8309Z" fill="#50BB78"/>
<path fill-rule="evenodd" clip-rule="evenodd" d="M28.167 49.25C28.167 67.83 28.094 66.662 29.186 65.62C29.404 65.412 29.883 65.093 30.25 64.912C30.617 64.731 30.977 64.49 31.05 64.375C31.123 64.26 31.264 64.167 31.363 64.167C31.462 64.167 31.982 63.867 32.52 63.5C33.057 63.133 33.568 62.833 33.657 62.833C33.745 62.833 33.877 62.735 33.95 62.616C34.023 62.496 34.406 62.232 34.801 62.03C35.196 61.828 35.676 61.516 35.868 61.337C36.06 61.158 36.263 61.04 36.319 61.074C36.375 61.109 36.565 61.031 36.742 60.902C36.919 60.773 36.993 60.663 36.907 60.658C36.821 60.654 37.2 60.43 37.75 60.161C38.3 59.891 38.679 59.67 38.593 59.669C38.507 59.668 38.581 59.561 38.758 59.431C38.935 59.302 39.119 59.22 39.167 59.25C39.214 59.28 39.553 59.085 39.918 58.817C40.284 58.549 40.862 58.207 41.204 58.058C41.545 57.909 41.792 57.734 41.752 57.671C41.713 57.607 41.94 57.431 42.257 57.28C42.574 57.129 42.833 56.917 42.833 56.808C42.833 56.7 42.881 56.659 42.939 56.717C42.997 56.775 43.232 56.675 43.461 56.495C43.691 56.314 43.977 56.167 44.098 56.167C44.218 56.167 44.377 56.067 44.45 55.944C44.523 55.822 44.939 55.547 45.374 55.332C45.809 55.118 46.126 54.904 46.079 54.857C46.032 54.81 46.37 54.599 46.83 54.388C47.29 54.176 47.667 53.941 47.667 53.866C47.667 53.728 48.618 53.218 48.902 53.204C48.985 53.2 49.124 53.07 49.21 52.916C49.297 52.762 49.622 52.529 49.934 52.399C50.245 52.269 50.5 52.088 50.5 51.998C50.5 51.907 50.582 51.833 50.683 51.833C50.783 51.833 51.083 51.678 51.349 51.489C51.616 51.299 51.833 51.198 51.833 51.263C51.833 51.328 52.017 51.184 52.242 50.941C52.467 50.698 52.748 50.498 52.867 50.495C52.986 50.493 53.378 50.268 53.738 49.995C54.098 49.723 54.478 49.5 54.582 49.5C54.685 49.5 54.952 49.331 55.173 49.125C55.394 48.919 55.63 48.75 55.696 48.75C55.86 48.75 56.246 48.354 56.156 48.279C56.116 48.245 53.458 46.733 50.25 44.917C47.042 43.101 42.767 40.679 40.75 39.534C38.733 38.389 35.958 36.816 34.583 36.037C33.208 35.258 31.248 34.144 30.226 33.561C29.205 32.977 28.324 32.5 28.268 32.5C28.212 32.5 28.167 40.038 28.167 49.25Z" fill="#9D68AB"/>
<path fill-rule="evenodd" clip-rule="evenodd" d="M0.666992 54.4068C0.666992 54.5158 1.38399 55.7358 1.50599 55.8328C1.56299 55.8788 1.95899 56.4418 2.38599 57.0828C2.81199 57.7248 3.26599 58.3618 3.39199 58.4998C3.51899 58.6368 3.74699 58.9748 3.89799 59.2498C4.04999 59.5248 4.43299 60.0868 4.74999 60.4998C5.06799 60.9118 5.47599 61.5228 5.65799 61.8578C5.83999 62.1918 6.08799 62.5668 6.20999 62.6908C6.33099 62.8148 6.80199 63.4788 7.25699 64.1668C7.71099 64.8538 8.13899 65.4918 8.20599 65.5828C8.27399 65.6748 8.58499 66.0968 8.89699 66.5208C9.20999 66.9448 9.55999 67.4698 9.67499 67.6868C9.78899 67.9048 9.93599 68.1208 9.99999 68.1668C10.064 68.2118 10.325 68.5818 10.579 68.9868C10.833 69.3918 11.111 69.8048 11.197 69.9038C11.283 70.0018 11.494 70.3078 11.666 70.5828C11.839 70.8578 12.399 71.6828 12.911 72.4168C13.423 73.1498 14.271 74.3868 14.794 75.1668C15.317 75.9458 15.821 76.6378 15.914 76.7058C16.025 76.7858 16.026 76.8298 15.917 76.8328C15.825 76.8358 15.845 76.8988 15.961 76.9718C16.076 77.0458 16.506 77.6258 16.914 78.2608C17.323 78.8968 17.761 79.5288 17.889 79.6668C18.016 79.8038 18.218 80.1038 18.337 80.3328C18.457 80.5628 18.666 80.8318 18.803 80.9328C18.953 81.0438 18.998 81.2018 18.916 81.3338C18.839 81.4588 18.848 81.5108 18.937 81.4548C19.023 81.4018 19.353 81.7728 19.672 82.2778C19.99 82.7828 20.381 83.3398 20.542 83.5148C20.702 83.6898 20.793 83.8328 20.743 83.8328C20.694 83.8328 20.731 83.9268 20.825 84.0418C21.28 84.5968 22.155 85.8338 22.341 86.1868C22.456 86.4048 22.602 86.6208 22.667 86.6668C22.772 86.7418 23.236 87.4148 24.031 88.6468C24.186 88.8868 24.411 89.1918 24.531 89.3238C24.652 89.4558 24.9 89.8078 25.083 90.1058C25.952 91.5168 27.919 94.3328 28.036 94.3328C28.108 94.3328 28.167 89.2478 28.167 83.0318V71.7298L27.042 70.9938C26.423 70.5888 25.862 70.1808 25.794 70.0868C25.727 69.9928 25.671 69.9708 25.669 70.0368C25.667 70.1478 24.675 69.5548 24.211 69.1648C24.098 69.0698 23.723 68.8298 23.378 68.6308C22.42 68.0798 21.999 67.7248 22.131 67.5788C22.196 67.5058 22.163 67.4958 22.057 67.5568C21.807 67.6998 21.307 67.5098 21.426 67.3178C21.476 67.2368 21.415 67.2098 21.29 67.2578C21.165 67.3058 20.924 67.1918 20.755 67.0058C20.586 66.8188 20.351 66.6668 20.232 66.6668C20.114 66.6668 19.95 66.5468 19.868 66.4018C19.787 66.2558 19.67 66.1448 19.608 66.1538C19.476 66.1748 19.044 65.9148 17.244 64.7308C16.507 64.2468 15.776 63.8008 15.62 63.7408C15.463 63.6808 15.374 63.5698 15.42 63.4938C15.467 63.4178 15.418 63.3018 15.31 63.2358C15.188 63.1598 15.16 63.1868 15.234 63.3078C15.436 63.6328 15.221 63.5298 13.963 62.6918C13.296 62.2478 12.262 61.5768 11.667 61.2008C11.071 60.8248 10.501 60.4468 10.401 60.3598C10.301 60.2728 9.99899 60.0878 9.72999 59.9488C9.17499 59.6618 7.57999 58.6378 7.09099 58.2548C6.91199 58.1148 6.70099 57.9998 6.62299 57.9998C6.54399 57.9998 6.53399 57.9128 6.59899 57.8078C6.67499 57.6848 6.64499 57.6608 6.51499 57.7408C6.40399 57.8098 6.18599 57.7548 6.03099 57.6188C5.87699 57.4828 5.43099 57.2118 5.04199 57.0158C4.65199 56.8198 4.33299 56.5858 4.33299 56.4968C4.33299 56.4068 4.25199 56.3328 4.15299 56.3328C4.05399 56.3328 3.58499 56.0848 3.11199 55.7808C0.750993 54.2658 0.666992 54.2188 0.666992 54.4068Z" fill="#10AED3"/>
<path fill-rule="evenodd" clip-rule="evenodd" d="M0.423984 54.322C0.370984 54.407 0.397984 54.52 0.482984 54.573C0.567984 54.626 0.672984 54.575 0.714984 54.459C0.775984 54.292 0.835984 54.292 1.01198 54.458C1.13398 54.573 1.30798 54.667 1.39898 54.667C1.63098 54.667 0.959984 54.178 0.717984 54.172C0.608984 54.169 0.476984 54.236 0.423984 54.322ZM55.375 54.349C55.169 54.426 55 54.571 55 54.671C55 54.771 54.925 54.807 54.833 54.75C54.742 54.693 54.667 54.714 54.667 54.797C54.667 54.958 53.832 55.411 53.625 55.362C53.556 55.346 53.5 55.454 53.5 55.601C53.5 55.764 53.407 55.833 53.264 55.778C53.134 55.729 52.986 55.795 52.936 55.927C52.885 56.059 52.743 56.167 52.62 56.167C52.497 56.167 52.251 56.302 52.073 56.467C51.895 56.632 51.413 56.95 51 57.175C50.587 57.4 50.196 57.667 50.129 57.77C50.062 57.872 49.781 58.05 49.504 58.165C49.227 58.28 49 58.448 49 58.538C49 58.628 48.884 58.658 48.741 58.603C48.599 58.548 48.522 58.567 48.57 58.645C48.618 58.723 48.36 58.921 47.995 59.085C47.631 59.25 47.333 59.448 47.333 59.525C47.333 59.603 47.221 59.667 47.083 59.667C46.946 59.667 46.833 59.742 46.833 59.833C46.833 59.925 46.735 60 46.615 60C46.495 60 46.235 60.15 46.038 60.333C45.644 60.701 45.414 60.775 45.599 60.474C45.674 60.354 45.645 60.327 45.523 60.402C45.416 60.469 45.367 60.586 45.414 60.662C45.461 60.738 45.275 60.879 45 60.975C44.725 61.071 44.5 61.233 44.5 61.334C44.5 61.436 44.433 61.478 44.351 61.427C44.269 61.377 44.159 61.447 44.106 61.584C44.053 61.721 43.926 61.833 43.823 61.833C43.719 61.833 43.427 61.981 43.174 62.162C42.92 62.342 42.653 62.436 42.579 62.37C42.506 62.304 42.495 62.335 42.554 62.439C42.618 62.55 42.448 62.717 42.144 62.843C41.86 62.961 41.486 63.208 41.313 63.393C41.141 63.578 41 63.676 41 63.61C41 63.475 38.925 64.833 38.433 65.289C38.258 65.451 38.169 65.49 38.234 65.375C38.421 65.047 38.223 65.13 37.73 65.587C37.48 65.819 37.102 66.052 36.889 66.105C36.676 66.159 36.54 66.264 36.587 66.339C36.633 66.414 36.502 66.529 36.294 66.593C36.087 66.658 35.721 66.848 35.481 67.017C35.242 67.186 34.986 67.269 34.913 67.203C34.84 67.137 34.829 67.169 34.889 67.274C34.991 67.453 34.566 67.751 34.292 67.693C34.223 67.679 34.167 67.742 34.167 67.833C34.167 67.925 34.058 68 33.925 68C33.792 68 33.623 68.094 33.55 68.208C33.477 68.323 33.154 68.563 32.833 68.742C32.512 68.92 32.107 69.199 31.933 69.361C31.759 69.523 31.553 69.616 31.475 69.568C31.397 69.52 31.333 69.56 31.333 69.657C31.333 69.754 31.248 69.833 31.143 69.833C31.039 69.833 30.846 69.965 30.714 70.125C30.583 70.285 30.523 70.323 30.581 70.208C30.743 69.888 30.503 69.961 30.193 70.326C30.041 70.506 29.809 70.674 29.678 70.701C29.547 70.728 29.214 70.959 28.939 71.214C28.663 71.47 28.358 71.648 28.261 71.611C28.136 71.563 28.083 74.999 28.083 83.105C28.083 89.464 28.121 94.665 28.167 94.664C28.332 94.658 28.957 93.905 29.219 93.395C29.367 93.108 29.604 92.829 29.745 92.775C29.887 92.72 29.989 92.618 29.972 92.546C29.916 92.307 30.38 91.509 30.524 91.598C30.603 91.647 30.667 91.595 30.667 91.483C30.667 91.371 31.042 90.727 31.5 90.052C31.958 89.376 32.333 88.754 32.333 88.67C32.333 88.586 32.433 88.457 32.555 88.383C32.676 88.31 32.918 88.006 33.091 87.708C33.264 87.41 33.506 87.167 33.629 87.167C33.752 87.167 33.817 87.109 33.774 87.039C33.664 86.86 34.42 85.642 34.556 85.778C34.617 85.839 34.667 85.776 34.667 85.637C34.667 85.498 34.823 85.244 35.013 85.071C35.204 84.898 35.554 84.362 35.791 83.879C36.039 83.372 36.333 82.999 36.485 82.997C36.717 82.995 36.719 82.975 36.5 82.833C36.339 82.729 36.323 82.671 36.455 82.669C36.568 82.668 36.805 82.385 36.982 82.042C37.159 81.698 37.457 81.309 37.643 81.178C37.83 81.047 37.95 80.887 37.911 80.824C37.872 80.761 38.007 80.526 38.211 80.303C38.416 80.081 38.713 79.621 38.872 79.282C39.031 78.944 39.236 78.667 39.328 78.667C39.42 78.667 39.605 78.404 39.739 78.083C39.873 77.762 40.06 77.5 40.154 77.5C40.248 77.5 40.48 77.16 40.669 76.744C40.859 76.329 41.085 76.033 41.173 76.088C41.261 76.142 41.333 76.076 41.333 75.942C41.333 75.689 42.985 73.127 43.213 73.026C43.284 72.995 43.492 72.676 43.675 72.318C43.857 71.96 44.08 71.667 44.17 71.667C44.26 71.667 44.333 71.55 44.333 71.407C44.333 71.264 44.41 71.194 44.504 71.253C44.598 71.311 44.664 71.296 44.651 71.221C44.595 70.899 44.694 70.696 45.167 70.167C45.442 69.859 45.667 69.505 45.667 69.381C45.667 69.258 45.776 69.114 45.909 69.063C46.042 69.012 46.312 68.639 46.507 68.235C46.703 67.83 46.934 67.542 47.019 67.595C47.105 67.648 47.156 67.63 47.133 67.554C47.076 67.37 47.86 66 48.023 66C48.093 66 48.275 65.738 48.427 65.418C48.579 65.098 48.769 64.877 48.85 64.927C48.93 64.977 48.952 64.901 48.897 64.759C48.842 64.616 48.869 64.5 48.956 64.5C49.043 64.5 49.256 64.237 49.428 63.917C49.601 63.596 49.795 63.333 49.86 63.333C49.924 63.333 50.145 62.996 50.351 62.585C50.556 62.173 50.76 61.871 50.803 61.914C50.846 61.957 51.084 61.61 51.331 61.143C51.578 60.675 51.905 60.223 52.057 60.138C52.209 60.053 52.333 59.872 52.333 59.736C52.333 59.601 52.445 59.447 52.582 59.394C52.719 59.341 52.79 59.231 52.739 59.149C52.688 59.067 52.709 59 52.786 59C52.862 59 53.07 58.719 53.248 58.375C53.425 58.031 53.686 57.622 53.827 57.466C54.321 56.92 54.507 56.672 54.52 56.545C54.527 56.474 54.6 56.435 54.68 56.457C54.761 56.48 54.874 56.311 54.932 56.082C54.989 55.854 55.095 55.667 55.167 55.667C55.238 55.667 55.345 55.476 55.403 55.243C55.462 55.01 55.575 54.86 55.654 54.909C55.84 55.024 56.003 54.606 55.86 54.381C55.792 54.275 55.606 54.263 55.375 54.349ZM4.33298 56.577C4.33298 56.62 4.48198 56.734 4.66298 56.831C4.93198 56.975 4.97498 56.961 4.89498 56.754C4.80898 56.529 4.33298 56.38 4.33298 56.577ZM2.00498 56.714C1.99698 56.931 2.52698 57.667 2.69198 57.667C2.77698 57.667 2.76598 57.573 2.66798 57.458C2.56898 57.344 2.38098 57.1 2.24998 56.917C2.11798 56.733 2.00798 56.642 2.00498 56.714ZM3.33298 58.732C3.33298 58.86 3.44798 59.008 3.58698 59.062C3.79398 59.141 3.80898 59.098 3.66498 58.83C3.45798 58.443 3.33298 58.407 3.33298 58.732ZM8.68998 59.319C8.90598 59.494 9.11498 59.606 9.15398 59.567C9.23998 59.482 8.64298 59.013 8.43998 59.005C8.36098 59.002 8.47298 59.144 8.68998 59.319ZM5.09998 61.317C5.24198 61.601 5.42998 61.833 5.51798 61.833C5.72098 61.833 5.44898 61.304 5.09698 61.011C4.86998 60.823 4.87098 60.857 5.09998 61.317ZM14.833 63.25C15.144 63.479 15.44 63.664 15.491 63.661C15.646 63.651 14.595 62.835 14.426 62.834C14.339 62.834 14.523 63.021 14.833 63.25ZM16.401 64.125C16.575 64.331 16.838 64.494 16.984 64.487C17.21 64.476 17.212 64.46 17 64.382C16.863 64.331 16.6 64.168 16.417 64.02C16.086 63.752 16.086 63.753 16.401 64.125ZM19.19 65.986C19.406 66.161 19.615 66.273 19.654 66.234C19.74 66.149 19.143 65.679 18.94 65.672C18.861 65.669 18.973 65.81 19.19 65.986ZM8.66698 66.441C8.66698 66.625 9.28998 67.333 9.45198 67.333C9.50998 67.333 9.37598 67.127 9.15398 66.875C8.93198 66.623 8.73098 66.385 8.70798 66.347C8.68498 66.309 8.66698 66.351 8.66698 66.441ZM20.759 67.015C20.941 67.308 21.502 67.532 21.401 67.27C21.351 67.14 21.165 66.995 20.988 66.949C20.811 66.902 20.708 66.932 20.759 67.015ZM22.426 68.015C22.562 68.235 23.167 68.534 23.165 68.381C23.165 68.309 22.977 68.163 22.748 68.057C22.52 67.951 22.375 67.932 22.426 68.015ZM9.99998 68.389C9.99998 68.542 10.079 68.667 10.177 68.667C10.274 68.667 10.299 68.753 10.234 68.859C10.159 68.981 10.189 69.006 10.316 68.928C10.471 68.832 10.468 68.741 10.305 68.527C10.189 68.375 10.073 68.219 10.047 68.181C10.021 68.142 9.99998 68.236 9.99998 68.389ZM12.672 72.273C12.679 72.477 13.149 73.073 13.234 72.988C13.273 72.949 13.161 72.74 12.986 72.523C12.81 72.307 12.669 72.194 12.672 72.273ZM13.5 73.447C13.5 73.545 13.612 73.719 13.748 73.832C13.885 73.945 13.958 74.099 13.912 74.174C13.866 74.249 13.909 74.36 14.008 74.422C14.363 74.641 14.323 74.383 13.915 73.831C13.687 73.522 13.5 73.349 13.5 73.447ZM17.755 79.825C17.701 79.912 17.815 80.068 18.008 80.171C18.33 80.343 18.343 80.33 18.173 80.013C17.967 79.626 17.897 79.595 17.755 79.825ZM18.667 81.066C18.667 81.193 18.781 81.342 18.921 81.395C19.128 81.475 19.142 81.432 18.998 81.163C18.791 80.777 18.667 80.74 18.667 81.066ZM19.339 81.94C19.346 82.143 19.816 82.74 19.901 82.654C19.939 82.615 19.828 82.406 19.652 82.19C19.477 81.973 19.336 81.861 19.339 81.94ZM20.5 83.917C20.614 84.054 20.792 84.161 20.895 84.154C21.012 84.145 21.004 84.109 20.874 84.056C20.759 84.01 20.707 83.903 20.759 83.819C20.811 83.735 20.727 83.667 20.573 83.667C20.343 83.667 20.33 83.711 20.5 83.917ZM23.167 87.648C23.167 87.739 23.247 87.863 23.345 87.924C23.443 87.985 23.581 88.189 23.651 88.379C23.721 88.569 23.821 88.654 23.874 88.569C23.926 88.484 23.789 88.205 23.568 87.948C23.347 87.691 23.167 87.556 23.167 87.648ZM24.5 89.566C24.5 89.693 24.614 89.842 24.754 89.895C24.961 89.975 24.975 89.932 24.831 89.663C24.625 89.277 24.5 89.24 24.5 89.566ZM25.833 91.437C25.833 91.524 26.064 91.856 26.345 92.173L26.857 92.75L26.394 92.083C26.139 91.717 25.908 91.385 25.882 91.347C25.855 91.309 25.833 91.349 25.833 91.437ZM27.284 93.745C27.449 93.971 27.643 94.159 27.716 94.161C27.789 94.164 27.714 93.982 27.549 93.755C27.385 93.529 27.19 93.341 27.117 93.339C27.044 93.336 27.119 93.518 27.284 93.745Z" fill="#647BBD"/>
</svg>
