<svg width="271" height="231" viewBox="0 0 271 231" fill="none" xmlns="http://www.w3.org/2000/svg">
<mask id="path-1-inside-1_230_4" fill="white">
<path d="M33.892 50.088C14.355 51.643 -1.68601 68.757 0.141995 88.859C1.71099 106.114 16.965 120.273 34.818 118.378C49.788 116.79 62.069 103.384 60.082 87.774C58.467 75.093 46.883 64.67 33.504 66.799C23.117 68.452 14.528 78.272 16.898 89.442C17.757 93.489 20.081 97.001 23.39 99.383C26.699 101.765 31.312 102.933 35.806 101.502C38.75 100.565 41.1 98.684 42.693 95.981C44.286 93.277 44.803 89.064 42.673 85.719C40.956 83.021 39.38 82.487 36.907 82.071C35.671 81.863 33.942 81.786 32.102 82.983C30.262 84.18 29.287 86.655 29.287 88.405C29.27 89.741 29.787 91.028 30.725 91.979C30.234 91.838 29.747 91.64 29.231 91.268C28.026 90.4 26.988 88.825 26.678 87.366C25.619 82.374 29.908 77.499 35.073 76.676C42.421 75.506 49.217 81.627 50.161 89.035C51.392 98.706 43.418 107.407 33.761 108.431C21.786 109.702 11.184 99.861 10.101 87.951C8.80299 73.684 20.517 61.184 34.685 60.057C34.811 60.047 34.938 60.041 35.064 60.034H235.064C235.19 60.044 235.316 60.048 235.441 60.057C249.609 61.184 261.323 73.684 260.025 87.953C258.942 99.864 248.34 109.704 236.365 108.433C226.707 107.408 218.733 98.707 219.965 89.037C220.908 81.628 227.704 75.508 235.053 76.678C240.218 77.5 244.507 82.375 243.447 87.368C243.137 88.827 242.099 90.403 240.894 91.27C240.378 91.641 239.894 91.84 239.404 91.981C240.34 91.029 240.856 89.742 240.838 88.407C240.838 86.657 239.865 84.182 238.026 82.985C236.186 81.788 234.458 81.865 233.221 82.073C230.748 82.489 229.171 83.024 227.453 85.721C225.324 89.065 225.842 93.279 227.435 95.983C229.028 98.687 231.378 100.568 234.322 101.504C238.816 102.934 243.427 101.767 246.736 99.385C250.045 97.003 252.369 93.491 253.228 89.444C255.598 78.275 247.009 68.455 236.623 66.801C223.244 64.672 211.659 75.095 210.045 87.776C208.057 103.386 220.341 116.791 235.311 118.38C253.163 120.274 268.416 106.116 269.985 88.86C271.813 68.758 255.772 51.643 236.235 50.089C235.829 50.027 235.454 50.052 235.065 50.044H35.065C34.676 50.02 34.265 50.065 33.893 50.091L33.892 50.088ZM15.063 0.0629883C12.302 0.0629883 10.063 2.30199 10.063 5.06299V15.063C10.063 16.389 10.59 17.661 11.528 18.598L31.528 38.598C32.466 39.536 33.737 40.063 35.063 40.063H235.063C236.389 40.063 237.661 39.536 238.598 38.598L258.598 18.598C259.536 17.66 260.063 16.389 260.063 15.063V5.06299C260.063 2.30199 257.824 0.0629883 255.063 0.0629883H15.063ZM20.063 10.063H250.063V12.991L232.991 30.063H37.133L20.063 12.991V10.063ZM75.063 80.063C72.302 80.063 70.063 82.302 70.063 85.063V225.063C70.064 227.825 72.303 230.063 75.065 230.062C76.052 230.062 77.016 229.77 77.837 229.223L106.278 210.26C107.644 209.35 108.476 207.827 108.505 206.186L110.062 115.147C110.062 115.119 110.062 115.091 110.062 115.063C110.062 111.783 120.12 111.69 120.062 114.973C120.062 115.003 120.062 115.033 120.062 115.063V195.063C120.063 197.825 122.302 200.063 125.064 200.062C126.051 200.062 127.015 199.77 127.836 199.223L157.836 179.223C159.227 178.296 160.062 176.735 160.063 175.063V115.063C160.063 111.724 170.063 111.724 170.063 115.063V165.063C170.064 167.825 172.304 170.063 175.066 170.061C175.841 170.061 176.606 169.88 177.3 169.533L197.3 159.533C198.993 158.686 200.063 156.956 200.064 155.062V85.062C200.064 82.301 197.825 80.062 195.064 80.062H75.064L75.063 80.063ZM80.063 90.063H190.063V151.971L180.063 156.971V115.063C180.063 98.395 150.063 98.395 150.063 115.063V172.387L130.063 185.721V115.063V115.151C130.36 98.427 100.065 98.336 100.065 115.063V114.977L98.553 203.395L80.065 215.721V90.063H80.063Z"/>
</mask>
<path d="M33.892 50.088C14.355 51.643 -1.68601 68.757 0.141995 88.859C1.71099 106.114 16.965 120.273 34.818 118.378C49.788 116.79 62.069 103.384 60.082 87.774C58.467 75.093 46.883 64.67 33.504 66.799C23.117 68.452 14.528 78.272 16.898 89.442C17.757 93.489 20.081 97.001 23.39 99.383C26.699 101.765 31.312 102.933 35.806 101.502C38.75 100.565 41.1 98.684 42.693 95.981C44.286 93.277 44.803 89.064 42.673 85.719C40.956 83.021 39.38 82.487 36.907 82.071C35.671 81.863 33.942 81.786 32.102 82.983C30.262 84.18 29.287 86.655 29.287 88.405C29.27 89.741 29.787 91.028 30.725 91.979C30.234 91.838 29.747 91.64 29.231 91.268C28.026 90.4 26.988 88.825 26.678 87.366C25.619 82.374 29.908 77.499 35.073 76.676C42.421 75.506 49.217 81.627 50.161 89.035C51.392 98.706 43.418 107.407 33.761 108.431C21.786 109.702 11.184 99.861 10.101 87.951C8.80299 73.684 20.517 61.184 34.685 60.057C34.811 60.047 34.938 60.041 35.064 60.034H235.064C235.19 60.044 235.316 60.048 235.441 60.057C249.609 61.184 261.323 73.684 260.025 87.953C258.942 99.864 248.34 109.704 236.365 108.433C226.707 107.408 218.733 98.707 219.965 89.037C220.908 81.628 227.704 75.508 235.053 76.678C240.218 77.5 244.507 82.375 243.447 87.368C243.137 88.827 242.099 90.403 240.894 91.27C240.378 91.641 239.894 91.84 239.404 91.981C240.34 91.029 240.856 89.742 240.838 88.407C240.838 86.657 239.865 84.182 238.026 82.985C236.186 81.788 234.458 81.865 233.221 82.073C230.748 82.489 229.171 83.024 227.453 85.721C225.324 89.065 225.842 93.279 227.435 95.983C229.028 98.687 231.378 100.568 234.322 101.504C238.816 102.934 243.427 101.767 246.736 99.385C250.045 97.003 252.369 93.491 253.228 89.444C255.598 78.275 247.009 68.455 236.623 66.801C223.244 64.672 211.659 75.095 210.045 87.776C208.057 103.386 220.341 116.791 235.311 118.38C253.163 120.274 268.416 106.116 269.985 88.86C271.813 68.758 255.772 51.643 236.235 50.089C235.829 50.027 235.454 50.052 235.065 50.044H35.065C34.676 50.02 34.265 50.065 33.893 50.091L33.892 50.088ZM15.063 0.0629883C12.302 0.0629883 10.063 2.30199 10.063 5.06299V15.063C10.063 16.389 10.59 17.661 11.528 18.598L31.528 38.598C32.466 39.536 33.737 40.063 35.063 40.063H235.063C236.389 40.063 237.661 39.536 238.598 38.598L258.598 18.598C259.536 17.66 260.063 16.389 260.063 15.063V5.06299C260.063 2.30199 257.824 0.0629883 255.063 0.0629883H15.063ZM20.063 10.063H250.063V12.991L232.991 30.063H37.133L20.063 12.991V10.063ZM75.063 80.063C72.302 80.063 70.063 82.302 70.063 85.063V225.063C70.064 227.825 72.303 230.063 75.065 230.062C76.052 230.062 77.016 229.77 77.837 229.223L106.278 210.26C107.644 209.35 108.476 207.827 108.505 206.186L110.062 115.147C110.062 115.119 110.062 115.091 110.062 115.063C110.062 111.783 120.12 111.69 120.062 114.973C120.062 115.003 120.062 115.033 120.062 115.063V195.063C120.063 197.825 122.302 200.063 125.064 200.062C126.051 200.062 127.015 199.77 127.836 199.223L157.836 179.223C159.227 178.296 160.062 176.735 160.063 175.063V115.063C160.063 111.724 170.063 111.724 170.063 115.063V165.063C170.064 167.825 172.304 170.063 175.066 170.061C175.841 170.061 176.606 169.88 177.3 169.533L197.3 159.533C198.993 158.686 200.063 156.956 200.064 155.062V85.062C200.064 82.301 197.825 80.062 195.064 80.062H75.064L75.063 80.063ZM80.063 90.063H190.063V151.971L180.063 156.971V115.063C180.063 98.395 150.063 98.395 150.063 115.063V172.387L130.063 185.721V115.063V115.151C130.36 98.427 100.065 98.336 100.065 115.063V114.977L98.553 203.395L80.065 215.721V90.063H80.063Z" fill="white" stroke="#222" stroke-width="6" stroke-linejoin="round" mask="url(#path-1-inside-1_230_4)"/>
</svg>
